<svg width="32.000000" height="32.000000" viewBox="0 0 32 32" fill="none" xmlns="http://www.w3.org/2000/svg" xmlns:xlink="http://www.w3.org/1999/xlink">
	<defs>
		<clipPath id="clip736_1036">
			<rect id="fi-sr-angle-right" rx="-0.500000" width="31.000000" height="31.000000" transform="translate(0.500000 0.500000)" fill="white" fill-opacity="0"/>
		</clipPath>
	</defs>
	<g clip-path="url(#clip736_1036)">
		<path id="Vector" d="M8.39 29.72C8.26 29.84 8.16 29.99 8.09 30.15C8.02 30.31 7.98 30.49 7.98 30.67C7.98 30.84 8.01 31.02 8.08 31.18C8.14 31.35 8.24 31.5 8.37 31.62C8.49 31.75 8.64 31.85 8.81 31.91C8.97 31.98 9.15 32.01 9.32 32.01C9.5 32.01 9.68 31.97 9.84 31.9C10 31.83 10.15 31.73 10.27 31.6L21.17 20.71C22.42 19.46 23.12 17.76 23.12 16C23.12 14.23 22.42 12.53 21.17 11.28L10.27 0.39C10.02 0.14 9.68 0.01 9.33 0.01C8.98 0.01 8.65 0.15 8.4 0.4C8.15 0.65 8.01 0.98 8.01 1.33C8.01 1.68 8.14 2.02 8.39 2.27L19.28 13.17C20.03 13.92 20.45 14.93 20.45 16C20.45 17.06 20.03 18.07 19.28 18.82L8.39 29.72Z" fill="#2A6CEA" fill-opacity="1.000000" fill-rule="nonzero"/>
	</g>
</svg>
