<svg width="32.000000" height="32.000000" viewBox="0 0 32 32" fill="none" xmlns="http://www.w3.org/2000/svg" xmlns:xlink="http://www.w3.org/1999/xlink">
	<defs>
		<clipPath id="clip736_1035">
			<rect id="fi-sr-angle-left" rx="-0.500000" width="31.000000" height="31.000000" transform="translate(0.500000 0.500000)" fill="white" fill-opacity="0"/>
		</clipPath>
	</defs>
	<g clip-path="url(#clip736_1035)">
		<path id="Vector" d="M23.83 2.27C24.08 2.02 24.21 1.68 24.21 1.33C24.21 0.98 24.06 0.65 23.82 0.4C23.57 0.15 23.24 0.01 22.89 0.01C22.54 0.01 22.2 0.14 21.95 0.39L11.05 11.28C9.8 12.53 9.1 14.23 9.1 16C9.1 17.76 9.8 19.46 11.05 20.71L21.95 31.6C22.2 31.85 22.54 31.98 22.89 31.98C23.24 31.98 23.57 31.84 23.82 31.59C24.06 31.34 24.21 31.01 24.21 30.66C24.21 30.31 24.08 29.97 23.83 29.72L12.94 18.82C12.19 18.07 11.77 17.06 11.77 16C11.77 14.93 12.19 13.92 12.94 13.17L23.83 2.27Z" fill="#2A6CEA" fill-opacity="1.000000" fill-rule="nonzero"/>
	</g>
</svg>
