<svg width="72.000000" height="72.000000" viewBox="0 0 72 72" fill="none" xmlns="http://www.w3.org/2000/svg" xmlns:xlink="http://www.w3.org/1999/xlink">
	<defs>
		<clipPath id="clip736_905">
			<rect id="money-bags" rx="-0.500000" width="71.000000" height="71.000000" transform="translate(0.500000 0.500000)" fill="white" fill-opacity="0"/>
		</clipPath>
	</defs>
	<rect id="money-bags" rx="-0.500000" width="71.000000" height="71.000000" transform="translate(0.500000 0.500000)" fill="#FFFFFF" fill-opacity="0"/>
	<g clip-path="url(#clip736_905)">
		<path id="Vector" d="M26.82 70.09C39.41 64.37 51.03 66.97 57.1 64.22C63.17 61.46 74.33 52.18 61.66 24.26C48.98 -3.66 29.97 0.02 23.3 3.05C-7.97 17.24 4.51 80.21 26.82 70.09Z" fill="#ECEFF2" fill-opacity="1.000000" fill-rule="nonzero"/>
		<path id="Vector" d="M27.29 19.7L27.11 19.7L31.79 15.95C32.81 15.14 32.23 13.5 30.94 13.5L18.13 13.5C16.83 13.5 16.25 15.14 17.27 15.95L21.96 19.7L21.78 19.7C17.01 22.49 13.16 30.46 13.16 36.23C13.16 40.36 15.23 44.5 20.05 44.5L29.35 44.5C34.17 44.5 36.24 40.36 36.24 36.23C36.24 30.46 32.06 22.49 27.29 19.7Z" fill="#F3F3F1" fill-opacity="1.000000" fill-rule="nonzero"/>
		<path id="Vector" d="M17.67 36.23C17.67 30.46 21.51 22.49 26.28 19.7L26.46 19.7L21.77 15.95C20.75 15.14 21.33 13.5 22.63 13.5L18.13 13.5C16.83 13.5 16.25 15.14 17.27 15.95L21.96 19.7L21.78 19.7C17.01 22.49 13.17 30.46 13.17 36.23C13.17 40.36 15.23 44.5 20.05 44.5L24.55 44.5C19.73 44.5 17.67 40.36 17.67 36.23Z" fill="#E1E6EA" fill-opacity="1.000000" fill-rule="nonzero"/>
		<path id="Vector" d="M49.71 19.7L49.53 19.7L54.22 15.95C55.24 15.14 54.66 13.5 53.36 13.5L40.55 13.5C39.25 13.5 38.67 15.14 39.69 15.95L44.38 19.7L44.2 19.7C39.43 22.49 35.59 30.46 35.59 36.23C35.59 40.36 37.65 44.5 42.47 44.5L51.77 44.5C56.6 44.5 58.66 40.36 58.66 36.23C58.67 30.46 54.48 22.49 49.71 19.7Z" fill="#F3F3F1" fill-opacity="1.000000" fill-rule="nonzero"/>
		<path id="Vector" d="M40.09 36.23C40.09 30.46 43.93 22.49 48.7 19.7L48.88 19.7L44.19 15.95C43.17 15.14 43.75 13.5 45.05 13.5L40.55 13.5C39.25 13.5 38.67 15.14 39.69 15.95L44.38 19.7L44.2 19.7C39.43 22.49 35.59 30.46 35.59 36.23C35.59 40.36 37.65 44.5 42.47 44.5L46.97 44.5C42.16 44.5 40.09 40.36 40.09 36.23Z" fill="#E1E6EA" fill-opacity="1.000000" fill-rule="nonzero"/>
		<path id="Vector" d="M38.83 33.69L38.65 33.69L43.33 29.95C44.35 29.13 43.77 27.49 42.48 27.49L29.67 27.49C28.37 27.49 27.79 29.13 28.81 29.95L33.5 33.69L33.32 33.69C28.55 36.49 24.7 44.45 24.7 50.23C24.7 54.36 26.77 58.49 31.59 58.49L40.89 58.49C45.71 58.49 47.78 54.36 47.78 50.23C47.78 44.45 43.6 36.49 38.83 33.69Z" fill="#2A6CEA" fill-opacity="1.000000" fill-rule="nonzero"/>
		<path id="Vector" d="M35.06 52.4C34.66 52.4 34.28 52.24 34 51.96L30 47.96L32.12 45.83L34.9 48.61L39.86 42L42.25 43.8L36.25 51.8C35.99 52.14 35.59 52.36 35.16 52.39C35.13 52.4 35.09 52.4 35.06 52.4Z" fill="#FFFFFF" fill-opacity="1.000000" fill-rule="nonzero"/>
		<path id="Vector" d="M29.21 50.23C29.21 44.46 33.05 36.49 37.82 33.69L38 33.69L33.32 29.95C32.3 29.13 32.88 27.49 34.17 27.49L29.67 27.49C28.37 27.49 27.8 29.13 28.82 29.95L33.5 33.69L33.32 33.69C28.55 36.49 24.71 44.45 24.71 50.23C24.71 54.36 26.77 58.49 31.6 58.49L36.1 58.49C31.27 58.49 29.21 54.36 29.21 50.23Z" fill="#191C1F" fill-opacity="0.100000" fill-rule="nonzero"/>
		<path id="Vector" d="M59.93 54.81L62.76 51.99L64.17 53.4L61.34 56.23L59.93 54.81Z" fill="#C2C8CD" fill-opacity="1.000000" fill-rule="nonzero"/>
		<path id="Vector" d="M51.8 62.94L54.63 60.12L56.04 61.53L53.21 64.36L51.8 62.94Z" fill="#C2C8CD" fill-opacity="1.000000" fill-rule="nonzero"/>
		<path id="Vector" d="M51.8 53.05L53.21 51.63L56.04 54.46L54.62 55.87L51.8 53.05Z" fill="#C2C8CD" fill-opacity="1.000000" fill-rule="nonzero"/>
		<path id="Vector" d="M59.93 61.18L61.34 59.76L64.17 62.59L62.75 64L59.93 61.18Z" fill="#C2C8CD" fill-opacity="1.000000" fill-rule="nonzero"/>
		<path id="Vector" d="M28.38 20.87L26.5 18.52L30.91 15L18.81 15L23.22 18.52L21.35 20.87L16.67 17.12C15.7 16.35 15.34 15.09 15.75 13.92C16.15 12.75 17.22 12 18.46 12L31.27 12C32.51 12 33.57 12.75 33.98 13.92C34.39 15.09 34.03 16.35 33.06 17.12L28.38 20.87Z" fill="#191C1F" fill-opacity="1.000000" fill-rule="nonzero"/>
		<path id="Vector" d="M17.63 18.2L32.09 18.2L32.09 21.2L17.63 21.2L17.63 18.2Z" fill="#191C1F" fill-opacity="1.000000" fill-rule="nonzero"/>
		<path id="Vector" d="M20.39 46C14.59 46 12 41.09 12 36.23C12 30.39 15.84 21.63 21.35 18.4L22.87 20.99C18.75 23.41 15 30.67 15 36.23C15 37.36 15.26 43 20.39 43L20.39 46Z" fill="#191C1F" fill-opacity="1.000000" fill-rule="nonzero"/>
		<path id="Vector" d="M50.64 20.87L48.77 18.52L53.18 15L41.08 15L45.49 18.52L43.62 20.87L38.93 17.12C37.96 16.35 37.6 15.09 38.01 13.92C38.42 12.75 39.49 12 40.72 12L53.54 12C54.77 12 55.84 12.75 56.25 13.92C56.66 15.09 56.29 16.35 55.33 17.12L50.64 20.87Z" fill="#191C1F" fill-opacity="1.000000" fill-rule="nonzero"/>
		<path id="Vector" d="M39.89 18.2L54.36 18.2L54.36 21.2L39.89 21.2L39.89 18.2Z" fill="#191C1F" fill-opacity="1.000000" fill-rule="nonzero"/>
		<path id="Vector" d="M51.61 46L51.61 43C56.73 43 56.99 37.36 56.99 36.23C56.99 30.67 53.24 23.41 49.12 20.99L50.64 18.4C56.15 21.63 59.99 30.39 59.99 36.23C59.99 41.09 57.4 46 51.61 46Z" fill="#191C1F" fill-opacity="1.000000" fill-rule="nonzero"/>
	</g>
</svg>
