<svg width="72.000000" height="72.000000" viewBox="0 0 72 72" fill="none" xmlns="http://www.w3.org/2000/svg" xmlns:xlink="http://www.w3.org/1999/xlink">
	<defs>
		<clipPath id="clip736_979">
			<rect id="waiting" rx="-0.500000" width="71.000000" height="71.000000" transform="translate(0.500000 0.500000)" fill="white" fill-opacity="0"/>
		</clipPath>
	</defs>
	<rect id="waiting" rx="-0.500000" width="71.000000" height="71.000000" transform="translate(0.500000 0.500000)" fill="#FFFFFF" fill-opacity="0"/>
	<g clip-path="url(#clip736_979)">
		<path id="Vector" d="M69.8 40.71C62.24 29.12 63.04 17.25 59.4 11.67C55.75 6.09 44.88 -3.54 19.21 13.23C-6.46 30 0.07 48.23 4.08 54.37C22.85 83.12 83.2 61.22 69.8 40.71Z" fill="#ECEFF2" fill-opacity="1.000000" fill-rule="nonzero"/>
		<path id="Vector" d="M37.5 22.89C37.5 23.35 37.19 23.74 36.78 23.88L27.06 27.06L23.88 36.78C23.74 37.19 23.35 37.5 22.89 37.5C22.44 37.5 22.06 37.21 21.92 36.83L13.57 14.92C13.52 14.8 13.5 14.68 13.5 14.54C13.5 13.97 13.97 13.5 14.54 13.5C14.68 13.5 14.8 13.52 14.92 13.57L36.83 21.92C37.21 22.06 37.5 22.44 37.5 22.89Z" fill="#F3F3F1" fill-opacity="1.000000" fill-rule="nonzero"/>
		<path id="Vector" d="M18.07 14.92C18.05 14.87 18.05 14.81 18.04 14.76L14.92 13.57C14.8 13.52 14.68 13.5 14.54 13.5C13.97 13.5 13.5 13.97 13.5 14.54C13.5 14.68 13.52 14.8 13.57 14.92L21.92 36.83C22.06 37.22 22.44 37.5 22.89 37.5C23.35 37.5 23.74 37.2 23.88 36.78L25.04 33.22L18.07 14.92Z" fill="#E1E6EA" fill-opacity="1.000000" fill-rule="nonzero"/>
		<path id="Vector" d="M58.5 45C58.5 52.45 52.45 58.5 45 58.5C37.54 58.5 31.5 52.45 31.5 45C31.5 37.54 37.54 31.5 45 31.5C52.45 31.5 58.5 37.54 58.5 45Z" fill="#2A6CEA" fill-opacity="1.000000" fill-rule="evenodd"/>
		<path id="Vector" d="M36 45C36 38.31 40.86 32.77 47.25 31.7C46.51 31.57 45.76 31.5 45 31.5C37.54 31.5 31.5 37.54 31.5 45C31.5 52.45 37.54 58.5 45 58.5C45.76 58.5 46.51 58.42 47.25 58.29C40.86 57.22 36 51.68 36 45Z" fill="#191C1F" fill-opacity="0.100000" fill-rule="nonzero"/>
		<path id="Vector" d="M60.25 25.36L61.67 23.94L64.49 26.77L63.08 28.19L60.25 25.36Z" fill="#C2C8CD" fill-opacity="1.000000" fill-rule="nonzero"/>
		<path id="Vector" d="M52.12 17.23L53.54 15.81L56.37 18.64L54.95 20.05L52.12 17.23Z" fill="#C2C8CD" fill-opacity="1.000000" fill-rule="nonzero"/>
		<path id="Vector" d="M60.61 18.64L63.44 15.81L64.85 17.23L62.02 20.06L60.61 18.64Z" fill="#C2C8CD" fill-opacity="1.000000" fill-rule="nonzero"/>
		<path id="Vector" d="M52.48 26.77L55.31 23.94L56.72 25.36L53.89 28.18L52.48 26.77Z" fill="#C2C8CD" fill-opacity="1.000000" fill-rule="nonzero"/>
		<path id="Vector" d="M49.54 51.65L44.04 47.15C43.69 46.87 43.49 46.44 43.49 45.99L43.49 37.49L46.49 37.49L46.49 45.28L51.44 49.33L49.54 51.65Z" fill="#FFFFFF" fill-opacity="1.000000" fill-rule="nonzero"/>
		<path id="Vector" d="M22.89 39C21.84 39 20.88 38.34 20.51 37.36L12.17 15.45C12.06 15.22 12 14.89 12 14.54C12 13.14 13.14 12 14.54 12C14.89 12 15.22 12.06 15.52 12.2L37.36 20.51C38.34 20.89 38.99 21.84 38.99 22.89C38.99 23.99 38.29 24.96 37.24 25.31L28.25 28.25L25.3 37.24C24.96 38.29 23.99 39 22.89 39ZM15.33 15.33L22.86 35.08L25.64 26.59C25.78 26.14 26.14 25.78 26.59 25.64L35.08 22.86L15.33 15.33ZM14.38 14.97C14.39 14.97 14.4 14.98 14.41 14.98L14.38 14.97ZM14.94 14.31L14.97 14.38C14.96 14.36 14.95 14.34 14.94 14.31Z" fill="#191C1F" fill-opacity="1.000000" fill-rule="nonzero"/>
	</g>
</svg>
